<svg width="132" height="124" viewBox="0 0 132 124" fill="none" xmlns="http://www.w3.org/2000/svg">
<path d="M0 26.4607V81.744C0 96.2822 11.8176 108.069 26.3934 108.069H62.0245V81.744H26.3934V26.4607H62.0245V0.135345H26.3934C11.8176 0.135345 0 11.9225 0 26.4607Z" fill="#2A2623"/>
<path d="M105.332 0.135345H69.7009V26.4607H105.332V81.744H82.8976C75.6086 81.744 69.7009 87.6365 69.7009 94.9067V121.232H96.0943V108.069H105.332C119.908 108.069 131.725 96.2822 131.725 81.744V26.4607C131.725 11.9225 119.908 0.135345 105.332 0.135345Z" fill="#2A2623"/>
<path d="M46.4678 123.207H46.0543C45.9641 123.207 45.8893 123.281 45.8893 123.371V123.865H46.0543V123.7H46.4678V123.865H46.6327V123.371C46.6327 123.281 46.5579 123.207 46.4678 123.207ZM46.4678 123.536H46.0543V123.371H46.4678V123.536Z" fill="#5F574F"/>
<path d="M49.3886 123.207H48.8938V123.865H49.3886C49.525 123.865 49.635 123.755 49.635 123.619V123.454C49.635 123.318 49.525 123.209 49.3886 123.209M49.4722 123.621C49.4722 123.667 49.4348 123.705 49.3886 123.705H49.0587V123.375H49.3886C49.4348 123.375 49.4722 123.413 49.4722 123.459V123.623V123.621Z" fill="#5F574F"/>
<path d="M43.4655 123.207H42.8893V123.865H43.0542V123.7H43.4677C43.5579 123.7 43.6327 123.626 43.6327 123.536V123.371C43.6327 123.281 43.5579 123.207 43.4677 123.207M43.4677 123.536H43.0542V123.371H43.4677V123.536Z" fill="#5F574F"/>
<path d="M52.5229 123.371V123.207H51.863V123.865H52.5229V123.7H52.028V123.619H52.4393V123.452H52.028V123.371H52.5229Z" fill="#5F574F"/>
<path d="M54.7663 123.207V123.865H55.4261V123.7H54.9313V123.207H54.7663Z" fill="#5F574F"/>
<path d="M47.5081 119.982H44.2089V115.967H42.8893V119.982C42.8893 120.708 43.4809 121.298 44.2089 121.298H47.5081C48.2361 121.298 48.8278 120.708 48.8278 119.982V115.967H47.5081V119.982Z" fill="#5F574F"/>
<path d="M54.1065 115.901H50.8073C50.0793 115.901 49.4876 116.491 49.4876 117.218V121.232H50.8073V119.916H54.1065V121.232H55.4261V117.218C55.4261 116.491 54.8345 115.901 54.1065 115.901ZM54.1065 118.6H50.8073V117.218H54.1065V118.6Z" fill="#5F574F"/>
<path d="M60.045 115.967H56.086V121.232H60.045C61.1381 121.232 62.0245 120.348 62.0245 119.258V117.941C62.0245 116.851 61.1381 115.967 60.045 115.967ZM60.7048 119.258C60.7048 119.622 60.4101 119.916 60.045 119.916H57.4056V117.283H60.045C60.4101 117.283 60.7048 117.577 60.7048 117.941V119.258Z" fill="#5F574F"/>
<path d="M35.6311 117.218V119.982C35.6311 120.708 36.2227 121.298 36.9508 121.298H38.7323V119.982H36.9508V117.218H38.7323V115.901H36.9508C36.2227 115.901 35.6311 116.491 35.6311 117.218Z" fill="#5F574F"/>
<path d="M40.9098 115.901H39.1282V117.218H40.9098V119.982H39.788C39.4229 119.982 39.1282 120.276 39.1282 120.64V121.956H40.4479V121.298H40.9098C41.6378 121.298 42.2294 120.708 42.2294 119.982V117.218C42.2294 116.491 41.6378 115.901 40.9098 115.901Z" fill="#5F574F"/>
</svg>
